<?xml version="1.0" encoding="UTF-8"?>
<!--METADATA
-IPTC:ObjectName=Cat sitting on a cardboard box
-EXIF:Artist=Jane Doe
-EXIF:DateTimeOriginal=2024:07:02 14:22:00
-EXIF:Make=Apple
-EXIF:Model=iPhone 15 Pro
-EXIF:GPSLatitude=47/1 36/1 22/1
-EXIF:GPSLatitudeRef=N
-EXIF:GPSLongitude=122/1 19/1 55/1
-EXIF:GPSLongitudeRef=W
-IPTC:Country-PrimaryLocationCode=US
-IPTC:Country-PrimaryLocationName=United States
-IPTC:Province-State=Washington
-IPTC:City=Seattle
-IPTC:Keywords=cat
-IPTC:Keywords=funny
-IPTC:Keywords=pet
-IPTC:Keywords=home
-XMP:Rating=5
METADATA-->
<svg xmlns="http://www.w3.org/2000/svg" width="1440" height="1440" viewBox="0 0 1440 1440">
  <rect width="1440" height="1440" fill="#f0ebe3"/>
  <!-- Floor -->
  <rect x="0" y="1100" width="1440" height="340" fill="#c8a882"/>
  <!-- Cardboard box -->
  <rect x="440" y="800" width="560" height="300" fill="#c4956a" stroke="#8b6b4a" stroke-width="4" rx="4"/>
  <line x1="720" y1="800" x2="720" y2="1100" stroke="#8b6b4a" stroke-width="2" stroke-dasharray="8,4"/>
  <line x1="440" y1="950" x2="1000" y2="950" stroke="#8b6b4a" stroke-width="2" stroke-dasharray="8,4"/>
  <!-- Box flaps -->
  <path d="M440,800 L480,740 L720,740 L720,800" fill="#d4a57a" stroke="#8b6b4a" stroke-width="3"/>
  <path d="M720,800 L720,760 L960,760 L1000,800" fill="#b8856a" stroke="#8b6b4a" stroke-width="3"/>
  <!-- Cat body (sitting on box) -->
  <ellipse cx="720" cy="700" rx="140" ry="100" fill="#555" stroke="#333" stroke-width="3"/>
  <!-- Cat head -->
  <circle cx="720" cy="560" r="90" fill="#555" stroke="#333" stroke-width="3"/>
  <!-- Ears -->
  <polygon points="655,500 670,420 700,490" fill="#555" stroke="#333" stroke-width="3"/>
  <polygon points="785,500 770,420 740,490" fill="#555" stroke="#333" stroke-width="3"/>
  <polygon points="665,490 675,435 695,485" fill="#d4a0a0" stroke="none"/>
  <polygon points="775,490 765,435 745,485" fill="#d4a0a0" stroke="none"/>
  <!-- Eyes -->
  <ellipse cx="690" cy="545" rx="18" ry="20" fill="#9c3" stroke="#333" stroke-width="2"/>
  <ellipse cx="750" cy="545" rx="18" ry="20" fill="#9c3" stroke="#333" stroke-width="2"/>
  <ellipse cx="690" cy="545" rx="8" ry="18" fill="#111"/>
  <ellipse cx="750" cy="545" rx="8" ry="18" fill="#111"/>
  <!-- Nose and mouth -->
  <polygon points="720,575 713,585 727,585" fill="#d4a0a0"/>
  <path d="M720,585 Q710,600 700,595" fill="none" stroke="#333" stroke-width="2"/>
  <path d="M720,585 Q730,600 740,595" fill="none" stroke="#333" stroke-width="2"/>
  <!-- Whiskers -->
  <line x1="640" y1="570" x2="700" y2="580" stroke="#888" stroke-width="1.5"/>
  <line x1="635" y1="585" x2="698" y2="588" stroke="#888" stroke-width="1.5"/>
  <line x1="740" y1="580" x2="800" y2="570" stroke="#888" stroke-width="1.5"/>
  <line x1="742" y1="588" x2="805" y2="585" stroke="#888" stroke-width="1.5"/>
  <!-- Tail -->
  <path d="M860,720 Q950,650 940,550 Q935,500 960,480" fill="none" stroke="#555" stroke-width="14" stroke-linecap="round"/>
  <!-- Front paws -->
  <ellipse cx="660" cy="790" rx="30" ry="15" fill="#555" stroke="#333" stroke-width="2"/>
  <ellipse cx="780" cy="790" rx="30" ry="15" fill="#555" stroke="#333" stroke-width="2"/>
</svg>
