<?xml version="1.0" encoding="UTF-8"?>
<!--METADATA
-EXIF:DateTimeOriginal=2024:09:11 19:00:00
-EXIF:GPSLatitude=51/1 30/1 50/1
-EXIF:GPSLatitudeRef=N
-EXIF:GPSLongitude=0/1 7/1 40/1
-EXIF:GPSLongitudeRef=W
-IPTC:Country-PrimaryLocationCode=GB
-IPTC:Country-PrimaryLocationName=United Kingdom
-XMP:Rating=2
METADATA-->
<svg xmlns="http://www.w3.org/2000/svg" width="1920" height="1280" viewBox="0 0 1920 1280">
  <rect width="1920" height="1280" fill="#d4c8b0"/>
  <!-- Street/pavement -->
  <rect x="0" y="1050" width="1920" height="230" fill="#8a8a8a"/>
  <!-- Building facade -->
  <rect x="300" y="100" width="1320" height="950" fill="#4a2020"/>
  <rect x="300" y="100" width="1320" height="80" fill="#3a1515"/>
  <!-- Pub sign -->
  <rect x="860" y="120" width="200" height="40" fill="#c8a040" stroke="#8a7030" stroke-width="2"/>
  <!-- Upper windows -->
  <rect x="450" y="220" width="150" height="200" fill="#8ab8d8" stroke="#3a1515" stroke-width="4"/>
  <line x1="525" y1="220" x2="525" y2="420" stroke="#3a1515" stroke-width="2"/>
  <rect x="750" y="220" width="150" height="200" fill="#8ab8d8" stroke="#3a1515" stroke-width="4"/>
  <line x1="825" y1="220" x2="825" y2="420" stroke="#3a1515" stroke-width="2"/>
  <rect x="1050" y="220" width="150" height="200" fill="#8ab8d8" stroke="#3a1515" stroke-width="4"/>
  <line x1="1125" y1="220" x2="1125" y2="420" stroke="#3a1515" stroke-width="2"/>
  <rect x="1350" y="220" width="150" height="200" fill="#8ab8d8" stroke="#3a1515" stroke-width="4"/>
  <line x1="1425" y1="220" x2="1425" y2="420" stroke="#3a1515" stroke-width="2"/>
  <!-- Ground floor windows -->
  <rect x="380" y="550" width="280" height="350" fill="#c8a040" stroke="#3a1515" stroke-width="4"/>
  <rect x="1260" y="550" width="280" height="350" fill="#c8a040" stroke="#3a1515" stroke-width="4"/>
  <!-- Door -->
  <rect x="860" y="600" width="200" height="450" fill="#2a1010" stroke="#c8a040" stroke-width="4" rx="4"/>
  <circle cx="1030" cy="830" r="8" fill="#c8a040"/>
  <!-- Hanging baskets -->
  <path d="M480,480 Q480,540 520,540 Q560,540 560,480" fill="none" stroke="#4a3020" stroke-width="3"/>
  <circle cx="500" cy="460" r="20" fill="#e91e63" opacity="0.7"/>
  <circle cx="530" cy="455" r="18" fill="#e91e63" opacity="0.7"/>
  <circle cx="515" cy="445" r="15" fill="#ff5722" opacity="0.7"/>
  <path d="M1360,480 Q1360,540 1400,540 Q1440,540 1440,480" fill="none" stroke="#4a3020" stroke-width="3"/>
  <circle cx="1380" cy="460" r="20" fill="#e91e63" opacity="0.7"/>
  <circle cx="1410" cy="455" r="18" fill="#e91e63" opacity="0.7"/>
  <circle cx="1395" cy="445" r="15" fill="#ff5722" opacity="0.7"/>
  <!-- Bracket for baskets -->
  <line x1="500" y1="200" x2="520" y2="480" stroke="#4a3020" stroke-width="3"/>
  <line x1="1420" y1="200" x2="1400" y2="480" stroke="#4a3020" stroke-width="3"/>
</svg>
