<?xml version="1.0" encoding="UTF-8"?>
<!--METADATA
-IPTC:ObjectName=Zen garden at Ryoan-ji
-EXIF:Artist=Jane Doe
-EXIF:DateTimeOriginal=2024:10:23 14:00:00
-EXIF:Make=Fujifilm
-EXIF:Model=X100VI
-EXIF:GPSLatitude=35/1 2/1 3/1
-EXIF:GPSLatitudeRef=N
-EXIF:GPSLongitude=135/1 43/1 7/1
-EXIF:GPSLongitudeRef=E
-IPTC:Country-PrimaryLocationCode=JP
-IPTC:Country-PrimaryLocationName=Japan
-IPTC:City=Kyoto
-IPTC:Keywords=zen
-IPTC:Keywords=garden
-IPTC:Keywords=kyoto
-IPTC:Keywords=japan
-XMP:Rating=3
METADATA-->
<svg xmlns="http://www.w3.org/2000/svg" width="1440" height="1440" viewBox="0 0 1440 1440">
  <rect width="1440" height="1440" fill="#d8d0c0"/>
  <!-- Garden border wall -->
  <rect x="0" y="0" width="1440" height="150" fill="#8a7a60"/>
  <line x1="0" y1="150" x2="1440" y2="150" stroke="#6a5a40" stroke-width="4"/>
  <!-- Raked gravel pattern (horizontal lines) -->
  <line x1="0" y1="250" x2="1440" y2="250" stroke="#c0b8a0" stroke-width="1.5"/>
  <line x1="0" y1="290" x2="1440" y2="290" stroke="#c0b8a0" stroke-width="1.5"/>
  <line x1="0" y1="330" x2="1440" y2="330" stroke="#c0b8a0" stroke-width="1.5"/>
  <line x1="0" y1="370" x2="1440" y2="370" stroke="#c0b8a0" stroke-width="1.5"/>
  <line x1="0" y1="410" x2="1440" y2="410" stroke="#c0b8a0" stroke-width="1.5"/>
  <line x1="0" y1="450" x2="1440" y2="450" stroke="#c0b8a0" stroke-width="1.5"/>
  <line x1="0" y1="490" x2="1440" y2="490" stroke="#c0b8a0" stroke-width="1.5"/>
  <line x1="0" y1="530" x2="1440" y2="530" stroke="#c0b8a0" stroke-width="1.5"/>
  <line x1="0" y1="570" x2="1440" y2="570" stroke="#c0b8a0" stroke-width="1.5"/>
  <line x1="0" y1="610" x2="1440" y2="610" stroke="#c0b8a0" stroke-width="1.5"/>
  <line x1="0" y1="650" x2="1440" y2="650" stroke="#c0b8a0" stroke-width="1.5"/>
  <line x1="0" y1="690" x2="1440" y2="690" stroke="#c0b8a0" stroke-width="1.5"/>
  <line x1="0" y1="730" x2="1440" y2="730" stroke="#c0b8a0" stroke-width="1.5"/>
  <line x1="0" y1="770" x2="1440" y2="770" stroke="#c0b8a0" stroke-width="1.5"/>
  <line x1="0" y1="810" x2="1440" y2="810" stroke="#c0b8a0" stroke-width="1.5"/>
  <line x1="0" y1="850" x2="1440" y2="850" stroke="#c0b8a0" stroke-width="1.5"/>
  <line x1="0" y1="890" x2="1440" y2="890" stroke="#c0b8a0" stroke-width="1.5"/>
  <line x1="0" y1="930" x2="1440" y2="930" stroke="#c0b8a0" stroke-width="1.5"/>
  <line x1="0" y1="970" x2="1440" y2="970" stroke="#c0b8a0" stroke-width="1.5"/>
  <line x1="0" y1="1010" x2="1440" y2="1010" stroke="#c0b8a0" stroke-width="1.5"/>
  <!-- Stones group 1 -->
  <ellipse cx="400" cy="500" rx="80" ry="40" fill="#7a7a6a" stroke="#5a5a4a" stroke-width="2"/>
  <ellipse cx="480" cy="520" rx="50" ry="30" fill="#8a8a7a" stroke="#5a5a4a" stroke-width="2"/>
  <!-- Raked circles around stones 1 -->
  <ellipse cx="440" cy="510" rx="160" ry="80" fill="none" stroke="#c0b8a0" stroke-width="1.5"/>
  <ellipse cx="440" cy="510" rx="190" ry="95" fill="none" stroke="#c0b8a0" stroke-width="1.5"/>
  <!-- Stones group 2 -->
  <ellipse cx="1000" cy="750" rx="60" ry="35" fill="#6a6a5a" stroke="#5a5a4a" stroke-width="2"/>
  <ellipse cx="1060" cy="770" rx="40" ry="25" fill="#7a7a6a" stroke="#5a5a4a" stroke-width="2"/>
  <ellipse cx="980" cy="780" rx="35" ry="20" fill="#8a8a7a" stroke="#5a5a4a" stroke-width="2"/>
  <!-- Raked circles around stones 2 -->
  <ellipse cx="1020" cy="765" rx="150" ry="75" fill="none" stroke="#c0b8a0" stroke-width="1.5"/>
  <ellipse cx="1020" cy="765" rx="180" ry="90" fill="none" stroke="#c0b8a0" stroke-width="1.5"/>
  <!-- Moss patch -->
  <ellipse cx="300" cy="900" rx="60" ry="30" fill="#5a7a3a" opacity="0.6"/>
  <!-- Viewing platform edge -->
  <rect x="0" y="1100" width="1440" height="340" fill="#8a6a4a"/>
  <line x1="0" y1="1100" x2="1440" y2="1100" stroke="#6a4a2a" stroke-width="4"/>
</svg>
